<svg xmlns="http://www.w3.org/2000/svg" width="32" height="32" viewBox="0 0 32 32" fill="none"><path d="M3.33139 22.6667C2.39995 18.271 2.39995 13.729 3.33139 9.33333C3.45377 8.88695 3.69024 8.4801 4.01753 8.15281C4.34482 7.82552 4.75167 7.58905 5.19806 7.46667C12.3493 6.28194 19.6468 6.28194 26.7981 7.46667C27.2444 7.58905 27.6513 7.82552 27.9786 8.15281C28.3059 8.4801 28.5423 8.88695 28.6647 9.33333C29.5962 13.729 29.5962 18.271 28.6647 22.6667C28.5423 23.1131 28.3059 23.5199 27.9786 23.8472C27.6513 24.1745 27.2444 24.4109 26.7981 24.5333C19.6468 25.7183 12.3493 25.7183 5.19806 24.5333C4.75167 24.4109 4.34482 24.1745 4.01753 23.8472C3.69024 23.5199 3.45377 23.1131 3.33139 22.6667Z" stroke="#1D0501" stroke-width="2" stroke-linecap="round" stroke-linejoin="round"/><path d="M13.332 20L19.9987 16L13.332 12V20Z" stroke="#1D0501" stroke-width="1.5" stroke-linecap="round" stroke-linejoin="round"/></svg>