<svg xmlns="http://www.w3.org/2000/svg" width="32" height="32" viewBox="0 0 32 32" fill="none"><path d="M17.2857 6H19.8314C20.0166 6.89375 20.5257 8.02125 21.4193 9.14C22.2936 10.2362 23.4533 11 25 11V13.5C22.7461 13.5 21.0529 12.4825 19.8571 11.2137V19.75C19.8571 20.9861 19.4801 22.1945 18.7737 23.2223C18.0674 24.2501 17.0633 25.0512 15.8887 25.5242C14.714 25.9973 13.4214 26.1211 12.1744 25.8799C10.9274 25.6387 9.78194 25.0435 8.88289 24.1694C7.98384 23.2953 7.37157 22.1817 7.12353 20.9693C6.87548 19.7569 7.00279 18.5003 7.48935 17.3582C7.97591 16.2162 8.79988 15.2401 9.85705 14.5533C10.9142 13.8666 12.1571 13.5 13.4286 13.5V16C12.6657 16 11.92 16.2199 11.2857 16.632C10.6514 17.044 10.157 17.6297 9.86504 18.3149C9.5731 19.0002 9.49672 19.7542 9.64555 20.4816C9.79437 21.209 10.1617 21.8772 10.7012 22.4016C11.2406 22.9261 11.9279 23.2832 12.6761 23.4279C13.4243 23.5726 14.1998 23.4984 14.9046 23.2145C15.6094 22.9307 16.2118 22.4501 16.6357 21.8334C17.0595 21.2167 17.2857 20.4917 17.2857 19.75V6Z" fill="#1D0501"/></svg>