<svg xmlns="http://www.w3.org/2000/svg" width="32" height="32" viewBox="0 0 32 32" fill="none"><path d="M22.668 2.66699H9.33463C5.65274 2.66699 2.66797 5.65176 2.66797 9.33366V22.667C2.66797 26.3489 5.65274 29.3337 9.33463 29.3337H22.668C26.3499 29.3337 29.3346 26.3489 29.3346 22.667V9.33366C29.3346 5.65176 26.3499 2.66699 22.668 2.66699Z" stroke="#1D0501" stroke-width="2" stroke-linecap="round" stroke-linejoin="round"></path><path d="M21.3316 15.1604C21.4962 16.2701 21.3067 17.4034 20.79 18.3991C20.2733 19.3948 19.4558 20.2023 18.4538 20.7066C17.4518 21.211 16.3162 21.3865 15.2087 21.2083C14.1011 21.0301 13.078 20.5072 12.2848 19.714C11.4915 18.9207 10.9686 17.8976 10.7904 16.79C10.6122 15.6825 10.7877 14.5469 11.2921 13.5449C11.7964 12.5429 12.6039 11.7254 13.5996 11.2087C14.5954 10.6921 15.7286 10.5025 16.8383 10.6671C17.9702 10.8349 19.0181 11.3624 19.8272 12.1715C20.6364 12.9806 21.1638 14.0285 21.3316 15.1604Z" stroke="#1D0501" stroke-width="1.5" stroke-linecap="round" stroke-linejoin="round"></path><path d="M23.332 8.66699H23.3454" stroke="#1D0501" stroke-width="1.5" stroke-linecap="round" stroke-linejoin="round"></path></svg>