<svg xmlns="http://www.w3.org/2000/svg" width="32" height="32" viewBox="0 0 32 32" fill="none"><path d="M12.3927 5.59309C9.71636 6.10877 7.83515 8.09213 6.74909 11.5432C6.20606 13.2489 5.93455 14.9347 5.93455 16.6008C5.93455 16.7991 5.93455 16.9776 5.93455 17.1363C5.97333 17.2553 6.01212 17.5528 6.05091 18.0288H12.3927V31H0V19.0403C0 13.1695 1.14424 8.64747 3.43273 5.47409C5.72121 2.3007 8.70788 0.476008 12.3927 0V5.59309ZM32 5.59309C29.8667 5.9501 28.2376 7.17978 27.1127 9.28215C26.0267 11.3845 25.4836 13.8042 25.4836 16.5413C25.4836 16.7793 25.4836 17.0173 25.4836 17.2553C25.5224 17.4933 25.5806 17.7511 25.6582 18.0288H32V31H19.5491V19.0403C19.5491 14.3199 20.5188 10.1152 22.4582 6.4261C24.3976 2.69738 27.5782 0.555342 32 0V5.59309Z" fill="#1D0501"></path></svg>