<svg xmlns="http://www.w3.org/2000/svg" width="32" height="32" viewBox="0 0 32 32" fill="none"><rect width="32" height="32" fill="#636363"></rect><g id="Final Design"><path d="M-1518 -2354C-1518 -2355.1 -1517.1 -2356 -1516 -2356H33956C33957.1 -2356 33958 -2355.1 33958 -2354V10535C33958 10536.1 33957.1 10537 33956 10537H-1516C-1517.1 10537 -1518 10536.1 -1518 10535V-2354Z" fill="#444444"></path><path d="M-1516 -2356V-2355H33956V-2356V-2357H-1516V-2356ZM33958 -2354H33957V10535H33958H33959V-2354H33958ZM33956 10537V10536H-1516V10537V10538H33956V10537ZM-1518 10535H-1517V-2354H-1518H-1519V10535H-1518ZM-1516 10537V10536C-1516.55 10536 -1517 10535.6 -1517 10535H-1518H-1519C-1519 10536.7 -1517.66 10538 -1516 10538V10537ZM33958 10535H33957C33957 10535.6 33956.6 10536 33956 10536V10537V10538C33957.7 10538 33959 10536.7 33959 10535H33958ZM33956 -2356V-2355C33956.6 -2355 33957 -2354.55 33957 -2354H33958H33959C33959 -2355.66 33957.7 -2357 33956 -2357V-2356ZM-1516 -2356V-2357C-1517.66 -2357 -1519 -2355.66 -1519 -2354H-1518H-1517C-1517 -2354.55 -1516.55 -2355 -1516 -2355V-2356Z" fill="white" fill-opacity="0.1"></path><g id="Home page light" clip-path="url(#clip0_2062_183)"><rect width="1440" height="7119" transform="translate(-82 -2031)" fill="white"></rect><g id="Frame 186"><g id="Frame 46"><g id="Frame 23"><g id="Frame 16"><mask id="path-3-inside-1_2062_183" fill="white"><path d="M-2 -34H1278V150H-2V-34Z"></path></mask><path d="M1278 150V149H-2V150V151H1278V150Z" fill="#DDDAD9" mask="url(#path-3-inside-1_2062_183)"></path><g id="scales-3-line"><g id="Frame 178"><g id="Frame" clip-path="url(#clip1_2062_183)"><g id="Clip path group"><mask id="mask0_2062_183" style="mask-type:luminance" maskUnits="userSpaceOnUse" x="0" y="0" width="32" height="32"><g id="clip0_104_231"><path id="Vector" d="M32 0H0V32H32V0Z" fill="white"></path></g></mask><g mask="url(#mask0_2062_183)"><g id="Group"><path id="Vector_2" fill-rule="evenodd" clip-rule="evenodd" d="M16 0H0V16H16V32H32V16H16V0Z" fill="#1D0501"></path></g></g></g></g></g></g></g></g></g></g></g></g><defs><clipPath id="clip0_2062_183"><rect width="1440" height="7119" fill="white" transform="translate(-82 -2031)"></rect></clipPath><clipPath id="clip1_2062_183"><rect width="32" height="32" fill="white"></rect></clipPath></defs></svg>