<svg xmlns="http://www.w3.org/2000/svg" width="40" height="40" viewBox="0 0 40 40" fill="none"><path d="M4.16699 20.0003C4.16699 12.5364 4.16699 8.80448 6.48573 6.48573C8.80448 4.16699 12.5364 4.16699 20.0003 4.16699C27.4642 4.16699 31.1962 4.16699 33.515 6.48573C35.8337 8.80448 35.8337 12.5364 35.8337 20.0003C35.8337 27.4642 35.8337 31.1962 33.515 33.515C31.1962 35.8337 27.4642 35.8337 20.0003 35.8337C12.5364 35.8337 8.80448 35.8337 6.48573 33.515C4.16699 31.1962 4.16699 27.4642 4.16699 20.0003Z" stroke="white" stroke-width="1.5" stroke-linejoin="round"></path><path d="M27.5 20C27.5 24.1422 24.1422 27.5 20 27.5C15.8579 27.5 12.5 24.1422 12.5 20C12.5 15.8579 15.8579 12.5 20 12.5C24.1422 12.5 27.5 15.8579 27.5 20Z" stroke="white" stroke-width="1.5"></path><path d="M29.18 10.833H29.165" stroke="white" stroke-width="2" stroke-linecap="round" stroke-linejoin="round"></path></svg>