<svg xmlns="http://www.w3.org/2000/svg" width="178" height="92" viewBox="0 0 178 92" fill="none"><path d="M44.8972 46.1162H4.01465V47.0307H44.8972V46.1162Z" fill="#1D0501"></path><path d="M172.829 46.1162H131.946V47.0307H172.829V46.1162Z" fill="#1D0501"></path><path d="M15.1236 25.8991C14.4874 25.8991 13.3862 26.0696 13.3862 25.0953C13.3862 24.0967 14.4874 24.2915 15.1236 24.2915C16.2493 24.2915 16.2493 22.6596 15.1236 22.6596H12.2361C11.1593 22.6596 11.1593 21.0277 12.2361 21.0277H15.1236C18.4027 21.0277 18.4027 25.8991 15.1236 25.8991ZM9.78897 34.8382C9.78897 35.9099 8.14941 35.9099 8.14941 34.8382V18.6163C8.14941 18.1292 8.51648 17.7882 8.95696 17.7882H15.4173C22.832 17.7882 22.8075 29.163 15.4173 29.163H13.0681V34.8382C13.0681 35.9099 11.4041 35.9099 11.4041 34.8382V28.3348C11.4041 27.8964 11.7956 27.531 12.2361 27.531H15.4173C20.6785 27.531 20.6785 19.3957 15.4173 19.3957H9.78897V34.8382ZM41.4789 23.9018C41.6012 24.3403 41.381 24.803 40.9405 24.9248C40.5 25.071 40.0106 24.8274 39.8882 24.389C39.3744 22.8301 38.3955 21.4905 37.0496 20.5162C35.7771 19.6149 34.1865 19.0547 32.4491 19.0547C22.2447 19.0547 22.2447 34.3024 32.4491 34.3024C34.1865 34.3024 35.7771 33.7665 37.0496 32.8409C38.3955 31.891 39.3744 30.5513 39.8882 28.9681C40.0106 28.5297 40.5 28.3105 40.9405 28.4323C41.381 28.5541 41.6012 29.0412 41.4789 29.4796C40.8671 31.3795 39.6435 33.0358 38.0529 34.1806C36.4623 35.301 34.5536 35.983 32.4491 35.983C20.0423 35.983 20.0423 17.3984 32.4491 17.3984C34.5536 17.3984 36.4623 18.0561 38.0529 19.1765C39.6435 20.3457 40.8671 21.9776 41.4789 23.9018ZM27.4081 29.6258C27.1633 29.2117 27.3102 28.7489 27.7017 28.5053C28.1177 28.2861 28.6071 28.4079 28.8274 28.822C29.2189 29.4553 29.7573 30.0155 30.3935 30.3565C30.9808 30.7218 31.6905 30.9411 32.4491 30.9411C33.6237 30.9411 34.6759 30.4783 35.4101 29.6988C36.1931 28.9438 36.6581 27.872 36.6581 26.6785C36.6581 25.5094 36.1931 24.4377 35.4101 23.6826C34.6759 22.9275 33.6237 22.4404 32.4491 22.4404C31.6905 22.4404 31.0053 22.6352 30.3935 23.0006C29.7573 23.366 29.2189 23.9018 28.8274 24.5351C28.6071 24.9492 28.1177 25.0953 27.7017 24.8761C27.3102 24.6569 27.1633 24.1454 27.4081 23.7313C27.9219 22.8301 28.6561 22.075 29.537 21.5635C30.418 21.052 31.4213 20.7841 32.4491 20.7841C34.0886 20.7841 35.5569 21.4417 36.6336 22.5135C37.6614 23.5852 38.3221 25.0466 38.3221 26.6785C38.3221 28.3105 37.6614 29.7719 36.6336 30.8436C35.5569 31.9397 34.0886 32.5974 32.4491 32.5974C31.4213 32.5974 30.418 32.3051 29.537 31.8179C28.6561 31.2821 27.9219 30.527 27.4081 29.6258ZM46.422 34.8626C46.422 35.301 46.0794 35.6907 45.6144 35.6907C45.174 35.6907 44.8069 35.301 44.8069 34.8626V18.5676C44.8069 18.1292 45.174 17.7882 45.6144 17.7882C46.0794 17.7882 46.422 18.1292 46.422 18.5676V34.8626ZM59.7831 34.8626C59.7831 35.301 59.4161 35.6907 58.9511 35.6907C58.5106 35.6907 58.1436 35.301 58.1436 34.8626V18.5676C58.1436 18.1292 58.5106 17.7882 58.9511 17.7882C59.4161 17.7882 59.7831 18.1292 59.7831 18.5676V34.8626ZM56.6753 34.3998C56.92 34.7651 56.8221 35.2523 56.4796 35.5446C56.088 35.7882 55.5986 35.6907 55.3294 35.3254L49.7011 27.3118V34.8626C49.7011 35.301 49.334 35.6664 48.8691 35.6664C48.4286 35.6664 48.086 35.301 48.086 34.8626V24.73C48.086 24.462 48.1839 24.2185 48.4286 24.0723C48.7712 23.78 49.3096 23.8775 49.5543 24.2672L56.6753 34.3998ZM47.9147 19.0547C47.6455 18.665 47.7434 18.1779 48.1105 17.9343C48.4776 17.642 48.9914 17.7638 49.2362 18.1292L54.8645 26.1427V18.5676C54.8645 18.1292 55.256 17.7882 55.6965 17.7882C56.137 17.7882 56.504 18.1292 56.504 18.5676V28.7002C56.504 28.9681 56.3817 29.2361 56.137 29.3822C55.7699 29.6501 55.2805 29.5527 55.0113 29.1873L47.9147 19.0547ZM74.5146 21.0277C74.9551 21.0277 75.2977 21.393 75.2977 21.8558C75.2977 22.2942 74.9551 22.6352 74.5146 22.6352H71.2355V34.8382C71.2355 35.301 70.8685 35.6664 70.4035 35.6664C69.9631 35.6664 69.596 35.301 69.596 34.8382V21.8558C69.596 21.393 69.9631 21.0277 70.4035 21.0277H74.5146ZM63.0867 19.3957C62.6218 19.3957 62.2547 19.0304 62.2547 18.5919C62.2547 18.1292 62.6218 17.7882 63.0867 17.7882H74.5146C74.9551 17.7882 75.2977 18.1292 75.2977 18.5919C75.2977 19.0304 74.9551 19.3957 74.5146 19.3957H63.0867ZM63.0867 22.6352C62.6218 22.6352 62.2547 22.2942 62.2547 21.8558C62.2547 21.393 62.6218 21.0277 63.0867 21.0277H67.1489C67.6138 21.0277 67.9809 21.393 67.9809 21.8558V34.8382C67.9809 35.301 67.6138 35.6664 67.1489 35.6664C66.7084 35.6664 66.3169 35.301 66.3169 34.8382V22.6352H63.0867ZM83.6178 27.7503H77.6225C76.5457 27.7503 76.5457 26.1183 77.6225 26.1183H83.6178C84.6946 26.1183 84.6946 27.7503 83.6178 27.7503ZM94.6298 25.8991C94.4095 25.8991 94.0914 25.9235 93.8222 25.8991C92.5498 25.826 92.5008 24.2915 93.8222 24.2915C94.5808 24.2915 95.4863 24.4133 95.4863 23.4634C95.4863 22.9762 95.0947 22.6352 94.6298 22.6352H91.7177C90.641 22.6352 90.641 21.0033 91.7177 21.0033H94.6298C96.1225 21.0033 97.1013 22.2455 97.1013 23.4877C97.1013 24.8518 95.9757 25.8991 94.6298 25.8991ZM96.147 34.3754C96.7587 35.2523 95.4373 36.2022 94.8011 35.3254L92.5497 32.0859V34.8626C92.5497 35.9343 90.9102 35.9343 90.9102 34.8626V29.5527C90.9102 28.6758 91.938 28.4323 92.4029 29.0412L96.147 34.3754ZM89.2706 34.8626C89.2706 35.9343 87.6311 35.9343 87.6311 34.8626V18.5676C87.6311 18.1292 88.0226 17.7638 88.4631 17.7638H94.899C99.9155 17.7638 102.436 23.8775 98.9122 27.4823C98.2025 28.1887 97.3216 28.7246 96.3427 28.9681L100.136 34.3754C100.748 35.2523 99.4016 36.2022 98.8143 35.3254L94.2872 28.8707C93.7978 28.2374 94.2872 27.531 94.899 27.531C98.4962 27.531 100.258 23.098 97.7376 20.5649C97.0035 19.8342 96.0002 19.3957 94.899 19.3957H89.2706V34.8626ZM120.642 23.9018C120.765 24.3403 120.545 24.803 120.104 24.9248C119.664 25.071 119.174 24.8274 119.052 24.389C118.538 22.8301 117.559 21.4905 116.213 20.5162C114.941 19.6149 113.35 19.0547 111.613 19.0547C101.408 19.0547 101.408 34.3024 111.613 34.3024C113.35 34.3024 114.941 33.7665 116.213 32.8409C117.559 31.891 118.538 30.5513 119.052 28.9681C119.174 28.5297 119.664 28.3105 120.104 28.4323C120.545 28.5541 120.765 29.0412 120.642 29.4796C120.031 31.3795 118.807 33.0358 117.216 34.1806C115.626 35.301 113.717 35.983 111.613 35.983C99.2058 35.983 99.2058 17.3984 111.613 17.3984C113.717 17.3984 115.626 18.0561 117.216 19.1765C118.807 20.3457 120.031 21.9776 120.642 23.9018ZM106.572 29.6258C106.327 29.2117 106.474 28.7489 106.865 28.5053C107.281 28.2861 107.771 28.4079 107.991 28.822C108.382 29.4553 108.921 30.0155 109.557 30.3565C110.144 30.7218 110.854 30.9411 111.613 30.9411C112.787 30.9411 113.839 30.4783 114.574 29.6988C115.357 28.9438 115.822 27.872 115.822 26.6785C115.822 25.5094 115.357 24.4377 114.574 23.6826C113.839 22.9275 112.787 22.4404 111.613 22.4404C110.854 22.4404 110.169 22.6352 109.557 23.0006C108.921 23.366 108.382 23.9018 107.991 24.5351C107.771 24.9492 107.281 25.0953 106.865 24.8761C106.474 24.6569 106.327 24.1454 106.572 23.7313C107.085 22.8301 107.82 22.075 108.701 21.5635C109.582 21.052 110.585 20.7841 111.613 20.7841C113.252 20.7841 114.72 21.4417 115.797 22.5135C116.825 23.5852 117.486 25.0466 117.486 26.6785C117.486 28.3105 116.825 29.7719 115.797 30.8436C114.72 31.9397 113.252 32.5974 111.613 32.5974C110.585 32.5974 109.582 32.3051 108.701 31.8179C107.82 31.2821 107.085 30.527 106.572 29.6258ZM127.225 28.9681V18.5432C127.225 18.0804 127.592 17.7151 128.033 17.7151C128.498 17.7151 128.865 18.0804 128.865 18.5432V28.9681C128.865 31.55 132.658 31.55 132.658 28.9681V18.5432C132.658 18.0804 133 17.7151 133.49 17.7151C133.93 17.7151 134.297 18.0804 134.297 18.5432V28.9681C134.297 33.7178 127.225 33.7178 127.225 28.9681ZM137.625 29.163C137.625 38.1021 123.873 38.0777 123.873 29.163V18.5432C123.873 18.0804 124.24 17.7151 124.68 17.7151C125.145 17.7151 125.512 18.0804 125.512 18.5432V29.163C125.512 35.983 136.01 35.983 136.01 29.163V18.5432C136.01 18.0804 136.353 17.7151 136.818 17.7151C137.258 17.7151 137.625 18.0804 137.625 18.5432V29.163ZM154.975 33.9126C154.975 34.2049 154.804 34.4729 154.535 34.619C148.417 37.9803 140.831 34.278 140.709 26.8734C140.586 19.9316 147.071 15.9614 153.923 18.1535C155.098 18.5189 154.584 20.0777 153.433 19.688C147.683 17.8369 142.25 21.0277 142.348 26.849C142.446 32.9871 148.613 35.7394 153.336 33.4255V26.7029C153.336 25.6312 154.975 25.6312 154.975 26.7029V33.9126ZM153.678 21.5148C154.657 21.9776 153.996 23.439 153.017 23.025C152.137 22.6352 151.109 22.4647 149.934 22.4891C144.355 22.7083 144.526 30.9167 149.983 30.868V26.7029C149.983 25.6312 151.647 25.6312 151.647 26.7029V31.6231C151.647 32.4999 150.521 32.5243 149.91 32.5243C142.47 32.5243 142.128 21.1495 149.885 20.8815C151.329 20.8328 152.577 21.052 153.678 21.5148ZM168.092 21.0277C168.557 21.0277 168.924 21.3687 168.924 21.8315C168.924 22.2699 168.557 22.6352 168.092 22.6352H163.711V24.2672H166.574C167.039 24.2672 167.406 24.6325 167.406 25.0953C167.406 25.5338 167.039 25.8991 166.574 25.8991H162.904C162.439 25.8991 162.072 25.5338 162.072 25.0953V21.8315C162.072 21.3687 162.439 21.0277 162.904 21.0277H168.092ZM166.574 27.531C167.039 27.531 167.406 27.8964 167.406 28.3348C167.406 28.7976 167.039 29.163 166.574 29.163H163.711V30.7706H168.092C168.557 30.7706 168.924 31.1359 168.924 31.5987C168.924 32.0371 168.557 32.4025 168.092 32.4025H162.904C162.439 32.4025 162.072 32.0371 162.072 31.5987V28.3348C162.072 27.8964 162.439 27.531 162.904 27.531H166.574ZM168.092 34.0344C168.557 34.0344 168.924 34.3998 168.924 34.8626C168.924 35.301 168.557 35.6664 168.092 35.6664H159.625C159.184 35.6664 158.817 35.301 158.817 34.8626V18.5676C158.817 18.1292 159.184 17.7638 159.625 17.7638H168.092C168.557 17.7638 168.924 18.1292 168.924 18.5676C168.924 19.0304 168.557 19.3957 168.092 19.3957H160.457V34.0344H168.092Z" fill="#1D0501"></path><path d="M52.0895 45.4292L54.4438 50.9412H53.6773L53.1141 49.5865H50.3453L49.7743 50.9412H49.0312L51.4716 45.4292H52.0895ZM51.7532 46.27L50.6034 48.9793H52.8638L51.7688 46.27H51.7532ZM62.2576 45.4292L63.9627 49.9602H63.9784L65.7382 45.4292H66.4344L64.2678 50.9412H63.6342L61.5146 45.4292H62.2576ZM76.7198 45.2891C77.5541 45.2891 78.2424 45.5615 78.7847 46.1065C79.327 46.6515 79.6034 47.3444 79.6138 48.1852C79.6086 49.0416 79.3296 49.737 78.7769 50.2716C78.2241 50.8062 77.5384 51.0761 76.7198 51.0813C75.8855 51.0813 75.1972 50.8075 74.6549 50.26C74.1126 49.7124 73.8362 49.0208 73.8258 48.1852C73.8258 47.3548 74.0969 46.6671 74.6392 46.1221C75.1815 45.5771 75.875 45.2994 76.7198 45.2891ZM74.5297 48.1852C74.5297 48.8443 74.7383 49.388 75.1555 49.8162C75.5726 50.2444 76.0941 50.4637 76.7198 50.4741C77.3455 50.4741 77.8643 50.2561 78.2763 49.8201C78.6882 49.3841 78.8994 48.8391 78.9098 48.1852C78.9098 47.5468 78.7065 47.0083 78.2997 46.5697C77.893 46.1312 77.3638 45.9067 76.712 45.8963C76.0758 45.9015 75.5557 46.1234 75.1515 46.562C74.7474 47.0005 74.5402 47.5416 74.5297 48.1852ZM90.259 45.2891C90.6918 45.2891 91.0751 45.3656 91.4088 45.5187C91.7425 45.6718 92.011 45.8833 92.2144 46.1532L91.6434 46.5658C91.4766 46.3427 91.2706 46.1753 91.0255 46.0637C90.7804 45.9521 90.5249 45.8963 90.259 45.8963C89.6698 45.8963 89.1731 46.1195 88.769 46.5658C88.3649 47.0122 88.1576 47.552 88.1472 48.1852C88.1472 48.8391 88.3479 49.3828 88.7494 49.8162C89.1509 50.2496 89.6541 50.4689 90.259 50.4741C90.9212 50.4741 91.4557 50.2171 91.8624 49.7033L92.3552 50.1159C91.8703 50.7595 91.1715 51.0813 90.259 51.0813C89.4508 51.0813 88.782 50.8036 88.2528 50.2483C87.7235 49.6929 87.4537 49.0052 87.4432 48.1852C87.4432 47.3651 87.7105 46.68 88.2449 46.1299C88.7794 45.5797 89.4508 45.2994 90.259 45.2891ZM102.781 45.4292L105.136 50.9412H104.369L103.806 49.5865H101.037L100.466 50.9412H99.7232L102.164 45.4292H102.781ZM102.445 46.27L101.295 48.9793H103.556L102.461 46.27H102.445ZM116.68 45.4292V46.0364H114.85V50.9412H114.193V46.0364H112.363V45.4292H116.68ZM126.168 45.2891C126.841 45.2891 127.357 45.5045 127.717 45.9352L127.177 46.4024C126.968 46.0754 126.632 45.9067 126.168 45.8963C125.819 45.8963 125.535 45.9794 125.316 46.1454C125.096 46.3115 124.987 46.5373 124.987 46.8228C124.987 47.0719 125.07 47.2691 125.237 47.4144C125.404 47.5598 125.717 47.7025 126.176 47.8426C126.77 48.0139 127.191 48.2228 127.439 48.4693C127.687 48.7159 127.811 49.0493 127.811 49.4698C127.811 49.9576 127.628 50.3469 127.263 50.6375C126.898 50.9282 126.431 51.0761 125.863 51.0813C125.482 51.0813 125.143 51.0138 124.846 50.8789C124.549 50.7439 124.32 50.5571 124.158 50.3183L124.721 49.859C124.841 50.0562 125.008 50.2081 125.222 50.3145C125.435 50.4209 125.662 50.4741 125.902 50.4741C126.231 50.4741 126.514 50.3819 126.751 50.1977C126.988 50.0134 127.107 49.7864 127.107 49.5165C127.107 49.2725 127.038 49.0805 126.899 48.9404C126.761 48.8002 126.533 48.6808 126.215 48.5822L125.581 48.372C125.107 48.2111 124.772 48.01 124.576 47.7687C124.381 47.5273 124.283 47.2302 124.283 46.8773C124.283 46.4101 124.458 46.03 124.807 45.7367C125.156 45.4435 125.61 45.2943 126.168 45.2891Z" fill="#1D0501"></path><path d="M84.4428 64.0967V58.2785H86.4769C86.8822 58.2785 87.2165 58.3486 87.4798 58.4887C87.743 58.627 87.939 58.8135 88.0678 59.0484C88.1966 59.2813 88.261 59.5399 88.261 59.824C88.261 60.074 88.2165 60.2804 88.1275 60.4433C88.0404 60.6061 87.9248 60.7349 87.7809 60.8296C87.6388 60.9243 87.4845 60.9944 87.3178 61.0399V61.0967C87.4959 61.108 87.6748 61.1705 87.8548 61.2842C88.0347 61.3978 88.1853 61.5607 88.3065 61.7728C88.4277 61.9849 88.4883 62.2444 88.4883 62.5512C88.4883 62.8429 88.422 63.1052 88.2894 63.3382C88.1568 63.5711 87.9476 63.7558 87.6616 63.8921C87.3756 64.0285 87.0034 64.0967 86.5451 64.0967H84.4428ZM85.1474 63.4717H86.5451C87.0053 63.4717 87.332 63.3827 87.5252 63.2046C87.7203 63.0247 87.8178 62.8069 87.8178 62.5512C87.8178 62.3543 87.7676 62.1724 87.6673 62.0058C87.5669 61.8372 87.4239 61.7027 87.2383 61.6024C87.0527 61.5001 86.833 61.449 86.5792 61.449H85.1474V63.4717ZM85.1474 60.8353H86.4542C86.6663 60.8353 86.8576 60.7936 87.0281 60.7103C87.2004 60.627 87.3368 60.5096 87.4371 60.358C87.5394 60.2065 87.5906 60.0285 87.5906 59.824C87.5906 59.5683 87.5015 59.3514 87.3235 59.1734C87.1455 58.9935 86.8633 58.9035 86.4769 58.9035H85.1474V60.8353ZM89.146 58.2785H89.9528L91.5664 60.9944H91.6346L93.2482 58.2785H94.055L91.9528 61.699V64.0967H91.2482V61.699L89.146 58.2785Z" fill="#1D0501"></path><path d="M3.27273 85.0967L0.636364 76.3694H1.70455L3.77273 83.5683H3.84659L5.90909 76.3694H6.98295L9.02841 83.5512H9.10795L11.1761 76.3694H12.2443L9.60795 85.0967H8.5625L6.49432 77.9433H6.38636L4.31818 85.0967H3.27273ZM16.1477 85.0967L13.5114 76.3694H14.5795L16.6477 83.5683H16.7216L18.7841 76.3694H19.858L21.9034 83.5512H21.983L24.0511 76.3694H25.1193L22.483 85.0967H21.4375L19.3693 77.9433H19.2614L17.1932 85.0967H16.1477ZM29.0227 85.0967L26.3864 76.3694H27.4545L29.5227 83.5683H29.5966L31.6591 76.3694H32.733L34.7784 83.5512H34.858L36.9261 76.3694H37.9943L35.358 85.0967H34.3125L32.2443 77.9433H32.1364L30.0682 85.0967H29.0227ZM39.5795 85.1819C39.3561 85.1819 39.1629 85.1024 39 84.9433C38.8409 84.7804 38.7614 84.5872 38.7614 84.3637C38.7614 84.1365 38.8409 83.9433 39 83.7842C39.1629 83.6251 39.3561 83.5455 39.5795 83.5455C39.8068 83.5455 40 83.6251 40.1591 83.7842C40.3182 83.9433 40.3977 84.1365 40.3977 84.3637C40.3977 84.5115 40.3598 84.6478 40.2841 84.7728C40.2121 84.8978 40.1136 84.9982 39.9886 85.074C39.8674 85.1459 39.7311 85.1819 39.5795 85.1819ZM52.3935 77.0967H51.3253C51.2457 76.699 51.1018 76.3315 50.8935 75.9944C50.6889 75.6535 50.4313 75.3561 50.1207 75.1024C49.8101 74.8486 49.4579 74.6516 49.0639 74.5115C48.67 74.3713 48.2438 74.3012 47.7855 74.3012C47.0507 74.3012 46.3802 74.4925 45.7741 74.8751C45.1719 75.2577 44.6889 75.8202 44.3253 76.5626C43.9654 77.3012 43.7855 78.2065 43.7855 79.2785C43.7855 80.358 43.9654 81.2671 44.3253 82.0058C44.6889 82.7444 45.1719 83.305 45.7741 83.6876C46.3802 84.0664 47.0507 84.2558 47.7855 84.2558C48.2438 84.2558 48.67 84.1857 49.0639 84.0455C49.4579 83.9054 49.8101 83.7103 50.1207 83.4603C50.4313 83.2065 50.6889 82.9092 50.8935 82.5683C51.1018 82.2274 51.2457 81.858 51.3253 81.4603H52.3935C52.2988 81.9944 52.1207 82.4925 51.8594 82.9546C51.6018 83.413 51.2723 83.8145 50.8707 84.1592C50.473 84.5039 50.0147 84.7728 49.4957 84.966C48.9768 85.1592 48.4067 85.2558 47.7855 85.2558C46.8082 85.2558 45.9408 85.0115 45.1832 84.5228C44.4257 84.0304 43.831 83.3372 43.3991 82.4433C42.9711 81.5493 42.7571 80.4944 42.7571 79.2785C42.7571 78.0626 42.9711 77.0077 43.3991 76.1137C43.831 75.2198 44.4257 74.5285 45.1832 74.0399C45.9408 73.5474 46.8082 73.3012 47.7855 73.3012C48.4067 73.3012 48.9768 73.3978 49.4957 73.591C50.0147 73.7804 50.473 74.0493 50.8707 74.3978C51.2723 74.7425 51.6018 75.144 51.8594 75.6024C52.1207 76.0607 52.2988 76.5588 52.3935 77.0967ZM55.6903 73.4603V85.0967H54.679V73.4603H55.6903ZM61.8949 85.2785C61.0805 85.2785 60.3759 85.0891 59.7812 84.7103C59.1866 84.3277 58.7263 83.7993 58.4006 83.1251C58.0786 82.4471 57.9176 81.6668 57.9176 80.7842C57.9176 79.9054 58.0786 79.1251 58.4006 78.4433C58.7263 77.7577 59.1752 77.2217 59.7472 76.8353C60.3229 76.4452 60.9877 76.2501 61.7415 76.2501C62.215 76.2501 62.6714 76.3372 63.1108 76.5115C63.5502 76.6819 63.9441 76.9452 64.2926 77.3012C64.6449 77.6535 64.9233 78.0986 65.1278 78.6365C65.3324 79.1705 65.4347 79.8031 65.4347 80.5342V81.0342H58.6165V80.1421H64.4006C64.4006 79.5815 64.2869 79.0777 64.0597 78.6308C63.8362 78.18 63.5237 77.824 63.1222 77.5626C62.7244 77.3012 62.2642 77.1705 61.7415 77.1705C61.1884 77.1705 60.7017 77.3183 60.2812 77.6137C59.8608 77.9092 59.5313 78.2993 59.2926 78.7842C59.0578 79.269 58.9384 79.7993 58.9347 80.3751V80.9092C58.9347 81.6024 59.054 82.2084 59.2926 82.7274C59.535 83.2425 59.8778 83.6421 60.321 83.9262C60.7642 84.2103 61.2888 84.3524 61.8949 84.3524C62.3078 84.3524 62.6695 84.288 62.9801 84.1592C63.2945 84.0304 63.5578 83.858 63.7699 83.6421C63.9858 83.4224 64.1487 83.1819 64.2585 82.9205L65.2188 83.233C65.0862 83.6005 64.8684 83.9395 64.5653 84.2501C64.2661 84.5607 63.8911 84.8107 63.4403 85.0001C62.9934 85.1857 62.4782 85.2785 61.8949 85.2785ZM70.9929 88.5512C70.3982 88.5512 69.8774 88.4736 69.4304 88.3183C68.9834 88.1668 68.6065 87.9584 68.2997 87.6933C67.9929 87.4281 67.7543 87.1308 67.5838 86.8012L68.4134 86.2558C68.5384 86.4755 68.705 86.6914 68.9134 86.9035C69.1255 87.1156 69.4001 87.2918 69.7372 87.4319C70.0781 87.5721 70.4967 87.6421 70.9929 87.6421C71.7656 87.6421 72.3887 87.449 72.8622 87.0626C73.3395 86.6762 73.5781 86.0758 73.5781 85.2615V83.2955H73.4872C73.3698 83.5607 73.2012 83.8258 72.9815 84.091C72.7618 84.3524 72.474 84.5702 72.1179 84.7444C71.7656 84.9186 71.3281 85.0058 70.8054 85.0058C70.1084 85.0058 69.4891 84.8334 68.9474 84.4887C68.4096 84.144 67.9853 83.6516 67.6747 83.0115C67.3679 82.3675 67.2145 81.6005 67.2145 80.7103C67.2145 79.8277 67.3641 79.0512 67.6634 78.3808C67.9664 77.7103 68.3887 77.1876 68.9304 76.8126C69.4721 76.4376 70.1027 76.2501 70.8224 76.2501C71.3565 76.2501 71.7997 76.3448 72.152 76.5342C72.5043 76.7198 72.7865 76.9508 72.9986 77.2274C73.2145 77.5039 73.383 77.7728 73.5043 78.0342H73.6065V76.3694H74.5952V85.324C74.5952 86.0626 74.438 86.6705 74.1236 87.1478C73.8092 87.6251 73.3812 87.9774 72.8395 88.2046C72.2978 88.4357 71.6823 88.5512 70.9929 88.5512ZM70.9247 84.0796C71.4853 84.0796 71.9645 83.9452 72.3622 83.6762C72.7599 83.4035 73.0649 83.0133 73.277 82.5058C73.4891 81.9982 73.5952 81.394 73.5952 80.6933C73.5952 80.0115 73.491 79.4073 73.2827 78.8808C73.0743 78.3505 72.7713 77.9338 72.3736 77.6308C71.9796 77.324 71.4967 77.1705 70.9247 77.1705C70.3414 77.1705 69.849 77.3277 69.4474 77.6421C69.0459 77.9565 68.7429 78.3808 68.5384 78.9149C68.3338 79.4452 68.2315 80.038 68.2315 80.6933C68.2315 81.3599 68.3357 81.949 68.544 82.4603C68.7524 82.9679 69.0573 83.3656 69.4588 83.6535C69.8603 83.9376 70.349 84.0796 70.9247 84.0796ZM79.7102 85.2955C79.1837 85.2955 78.7027 85.1933 78.267 84.9887C77.8314 84.7804 77.4848 84.4811 77.2273 84.091C76.9697 83.6971 76.8409 83.2198 76.8409 82.6592C76.8409 82.2274 76.9223 81.8637 77.0852 81.5683C77.2481 81.2728 77.4792 81.0304 77.7784 80.841C78.0777 80.6516 78.4318 80.502 78.8409 80.3921C79.25 80.2823 79.7008 80.1971 80.1932 80.1365C80.6818 80.0758 81.0947 80.0228 81.4318 79.9774C81.7727 79.9319 82.0322 79.8599 82.2102 79.7615C82.3883 79.663 82.4773 79.5039 82.4773 79.2842V79.0796C82.4773 78.4849 82.2992 78.0171 81.9432 77.6762C81.5909 77.3315 81.0833 77.1592 80.4205 77.1592C79.7917 77.1592 79.2784 77.2974 78.8807 77.574C78.4867 77.8505 78.2102 78.1762 78.0511 78.5512L77.0909 78.2046C77.2879 77.7274 77.5606 77.3467 77.9091 77.0626C78.2576 76.7747 78.6477 76.5683 79.0795 76.4433C79.5114 76.3145 79.9489 76.2501 80.392 76.2501C80.7254 76.2501 81.072 76.2936 81.4318 76.3808C81.7955 76.4679 82.1326 76.6194 82.4432 76.8353C82.7538 77.0474 83.0057 77.3448 83.1989 77.7274C83.392 78.1061 83.4886 78.5872 83.4886 79.1705V85.0967H82.4773V83.716H82.4148C82.2936 83.9736 82.1136 84.2236 81.875 84.466C81.6364 84.7084 81.3371 84.9073 80.9773 85.0626C80.6174 85.2179 80.1951 85.2955 79.7102 85.2955ZM79.8466 84.3694C80.3845 84.3694 80.8504 84.2501 81.2443 84.0115C81.6383 83.7728 81.9413 83.4565 82.1534 83.0626C82.3693 82.6649 82.4773 82.2274 82.4773 81.7501V80.4887C82.4015 80.5607 82.2746 80.6251 82.0966 80.6819C81.9223 80.7387 81.7197 80.7899 81.4886 80.8353C81.2614 80.877 81.0341 80.913 80.8068 80.9433C80.5795 80.9736 80.375 81.0001 80.1932 81.0228C79.7008 81.0834 79.2803 81.1781 78.9318 81.3069C78.5833 81.4357 78.3163 81.6137 78.1307 81.841C77.9451 82.0645 77.8523 82.3524 77.8523 82.7046C77.8523 83.2349 78.0417 83.6459 78.4205 83.9376C78.7992 84.2255 79.2746 84.3694 79.8466 84.3694ZM87.1903 73.4603V85.0967H86.179V73.4603H87.1903ZM94.5767 79.6308V80.5853H89.7358V79.6308H94.5767ZM97.3438 85.0967H96.2301L100.463 73.4603H101.599L105.832 85.0967H104.719L101.071 74.841H100.991L97.3438 85.0967ZM98.1449 80.6365H103.918V81.591H98.1449V80.6365ZM113.278 76.3694L110.091 85.0967H109.011L105.824 76.3694H106.92L109.511 83.7615H109.591L112.182 76.3694H113.278ZM118.337 85.2785C117.583 85.2785 116.916 85.0872 116.337 84.7046C115.761 84.3221 115.31 83.7936 114.984 83.1194C114.659 82.4414 114.496 81.6592 114.496 80.7728C114.496 79.8789 114.659 79.0929 114.984 78.4149C115.31 77.733 115.761 77.2027 116.337 76.824C116.916 76.4414 117.583 76.2501 118.337 76.2501C119.09 76.2501 119.755 76.4414 120.331 76.824C120.907 77.2065 121.357 77.7368 121.683 78.4149C122.013 79.0929 122.178 79.8789 122.178 80.7728C122.178 81.6592 122.015 82.4414 121.689 83.1194C121.363 83.7936 120.911 84.3221 120.331 84.7046C119.755 85.0872 119.09 85.2785 118.337 85.2785ZM118.337 84.3524C118.943 84.3524 119.456 84.1895 119.876 83.8637C120.297 83.538 120.615 83.1043 120.831 82.5626C121.051 82.0209 121.161 81.4243 121.161 80.7728C121.161 80.1213 121.051 79.5228 120.831 78.9774C120.615 78.4319 120.297 77.9944 119.876 77.6649C119.456 77.3353 118.943 77.1705 118.337 77.1705C117.734 77.1705 117.221 77.3353 116.797 77.6649C116.376 77.9944 116.056 78.4319 115.837 78.9774C115.621 79.5228 115.513 80.1213 115.513 80.7728C115.513 81.4243 115.621 82.0209 115.837 82.5626C116.056 83.1043 116.376 83.538 116.797 83.8637C117.217 84.1895 117.731 84.3524 118.337 84.3524ZM127.807 85.2785C127.027 85.2785 126.347 85.0834 125.767 84.6933C125.191 84.3031 124.744 83.769 124.426 83.091C124.108 82.413 123.949 81.6402 123.949 80.7728C123.949 79.8978 124.11 79.1194 124.432 78.4376C124.758 77.7558 125.208 77.2217 125.784 76.8353C126.36 76.4452 127.028 76.2501 127.79 76.2501C128.373 76.2501 128.902 76.3637 129.375 76.591C129.848 76.8145 130.239 77.1308 130.545 77.5399C130.856 77.9452 131.051 78.4186 131.131 78.9603H130.108C130.002 78.4679 129.746 78.0474 129.341 77.699C128.939 77.3467 128.428 77.1705 127.807 77.1705C127.25 77.1705 126.758 77.3221 126.33 77.6251C125.902 77.9243 125.566 78.3429 125.324 78.8808C125.085 79.4149 124.966 80.0342 124.966 80.7387C124.966 81.4471 125.083 82.074 125.318 82.6194C125.553 83.1611 125.883 83.5853 126.307 83.8921C126.735 84.199 127.235 84.3524 127.807 84.3524C128.193 84.3524 128.545 84.2804 128.864 84.1365C129.186 83.9887 129.455 83.7804 129.67 83.5115C129.89 83.2425 130.038 82.9224 130.114 82.5512H131.136C131.061 83.0777 130.873 83.5474 130.574 83.9603C130.278 84.3694 129.894 84.6914 129.42 84.9262C128.951 85.1611 128.413 85.2785 127.807 85.2785ZM135.741 85.2955C135.215 85.2955 134.734 85.1933 134.298 84.9887C133.863 84.7804 133.516 84.4811 133.259 84.091C133.001 83.6971 132.872 83.2198 132.872 82.6592C132.872 82.2274 132.954 81.8637 133.116 81.5683C133.279 81.2728 133.51 81.0304 133.81 80.841C134.109 80.6516 134.463 80.502 134.872 80.3921C135.281 80.2823 135.732 80.1971 136.224 80.1365C136.713 80.0758 137.126 80.0228 137.463 79.9774C137.804 79.9319 138.063 79.8599 138.241 79.7615C138.42 79.663 138.509 79.5039 138.509 79.2842V79.0796C138.509 78.4849 138.33 78.0171 137.974 77.6762C137.622 77.3315 137.115 77.1592 136.452 77.1592C135.823 77.1592 135.31 77.2974 134.912 77.574C134.518 77.8505 134.241 78.1762 134.082 78.5512L133.122 78.2046C133.319 77.7274 133.592 77.3467 133.94 77.0626C134.289 76.7747 134.679 76.5683 135.111 76.4433C135.543 76.3145 135.98 76.2501 136.423 76.2501C136.757 76.2501 137.103 76.2936 137.463 76.3808C137.827 76.4679 138.164 76.6194 138.474 76.8353C138.785 77.0474 139.037 77.3448 139.23 77.7274C139.423 78.1061 139.52 78.5872 139.52 79.1705V85.0967H138.509V83.716H138.446C138.325 83.9736 138.145 84.2236 137.906 84.466C137.668 84.7084 137.368 84.9073 137.009 85.0626C136.649 85.2179 136.226 85.2955 135.741 85.2955ZM135.878 84.3694C136.416 84.3694 136.882 84.2501 137.276 84.0115C137.67 83.7728 137.973 83.4565 138.185 83.0626C138.401 82.6649 138.509 82.2274 138.509 81.7501V80.4887C138.433 80.5607 138.306 80.6251 138.128 80.6819C137.954 80.7387 137.751 80.7899 137.52 80.8353C137.293 80.877 137.065 80.913 136.838 80.9433C136.611 80.9736 136.406 81.0001 136.224 81.0228C135.732 81.0834 135.312 81.1781 134.963 81.3069C134.615 81.4357 134.348 81.6137 134.162 81.841C133.976 82.0645 133.884 82.3524 133.884 82.7046C133.884 83.2349 134.073 83.6459 134.452 83.9376C134.83 84.2255 135.306 84.3694 135.878 84.3694ZM145.648 76.3694V77.2501H141.483V76.3694H145.648ZM142.784 74.2785H143.801V82.8183C143.801 83.1819 143.864 83.4679 143.989 83.6762C144.114 83.8808 144.277 84.0266 144.477 84.1137C144.678 84.1971 144.892 84.2387 145.119 84.2387C145.252 84.2387 145.366 84.2311 145.46 84.216C145.555 84.1971 145.638 84.1781 145.71 84.1592L145.926 85.074C145.828 85.1118 145.706 85.1459 145.562 85.1762C145.419 85.2103 145.241 85.2274 145.028 85.2274C144.657 85.2274 144.299 85.1459 143.955 84.983C143.614 84.8202 143.333 84.5777 143.114 84.2558C142.894 83.9338 142.784 83.5342 142.784 83.0569V74.2785ZM153.652 78.2842L152.726 78.5455C152.635 78.2842 152.506 78.0474 152.339 77.8353C152.173 77.6232 151.955 77.4546 151.686 77.3296C151.421 77.2046 151.091 77.1421 150.697 77.1421C150.107 77.1421 149.622 77.2823 149.243 77.5626C148.864 77.8429 148.675 78.2046 148.675 78.6478C148.675 79.0228 148.804 79.3277 149.061 79.5626C149.322 79.7936 149.724 79.9774 150.266 80.1137L151.584 80.4376C152.315 80.6156 152.862 80.8978 153.226 81.2842C153.593 81.6705 153.777 82.1554 153.777 82.7387C153.777 83.2311 153.641 83.6686 153.368 84.0512C153.095 84.4338 152.714 84.7349 152.226 84.9546C151.741 85.1705 151.179 85.2785 150.538 85.2785C149.686 85.2785 148.983 85.0872 148.43 84.7046C147.877 84.3183 147.523 83.7615 147.368 83.0342L148.339 82.7955C148.464 83.3145 148.709 83.7065 149.072 83.9717C149.44 84.2368 149.923 84.3694 150.521 84.3694C151.192 84.3694 151.728 84.2198 152.129 83.9205C152.531 83.6175 152.732 83.2387 152.732 82.7842C152.732 82.4319 152.614 82.1365 152.379 81.8978C152.144 81.6554 151.788 81.4774 151.311 81.3637L149.885 81.0228C149.127 80.841 148.567 80.5531 148.203 80.1592C147.839 79.7652 147.658 79.2766 147.658 78.6933C147.658 78.2122 147.788 77.7899 148.05 77.4262C148.311 77.0588 148.671 76.7709 149.129 76.5626C149.588 76.3543 150.11 76.2501 150.697 76.2501C151.497 76.2501 152.135 76.4319 152.612 76.7955C153.093 77.1554 153.44 77.6516 153.652 78.2842ZM156.798 85.1819C156.575 85.1819 156.382 85.1024 156.219 84.9433C156.06 84.7804 155.98 84.5872 155.98 84.3637C155.98 84.1365 156.06 83.9433 156.219 83.7842C156.382 83.6251 156.575 83.5455 156.798 83.5455C157.026 83.5455 157.219 83.6251 157.378 83.7842C157.537 83.9433 157.616 84.1365 157.616 84.3637C157.616 84.5115 157.579 84.6478 157.503 84.7728C157.431 84.8978 157.332 84.9982 157.207 85.074C157.086 85.1459 156.95 85.1819 156.798 85.1819ZM163.697 85.2785C162.917 85.2785 162.237 85.0834 161.658 84.6933C161.082 84.3031 160.635 83.769 160.317 83.091C159.999 82.413 159.839 81.6402 159.839 80.7728C159.839 79.8978 160 79.1194 160.322 78.4376C160.648 77.7558 161.099 77.2217 161.675 76.8353C162.25 76.4452 162.919 76.2501 163.68 76.2501C164.264 76.2501 164.792 76.3637 165.266 76.591C165.739 76.8145 166.129 77.1308 166.436 77.5399C166.747 77.9452 166.942 78.4186 167.021 78.9603H165.999C165.893 78.4679 165.637 78.0474 165.232 77.699C164.83 77.3467 164.319 77.1705 163.697 77.1705C163.141 77.1705 162.648 77.3221 162.22 77.6251C161.792 77.9243 161.457 78.3429 161.214 78.8808C160.976 79.4149 160.857 80.0342 160.857 80.7387C160.857 81.4471 160.974 82.074 161.209 82.6194C161.444 83.1611 161.773 83.5853 162.197 83.8921C162.625 84.199 163.125 84.3524 163.697 84.3524C164.084 84.3524 164.436 84.2804 164.754 84.1365C165.076 83.9887 165.345 83.7804 165.561 83.5115C165.781 83.2425 165.929 82.9224 166.004 82.5512H167.027C166.951 83.0777 166.764 83.5474 166.464 83.9603C166.169 84.3694 165.785 84.6914 165.311 84.9262C164.841 85.1611 164.304 85.2785 163.697 85.2785ZM170.206 79.6421V85.0967H169.195V73.4603H170.206V77.7387H170.297C170.501 77.288 170.818 76.9281 171.246 76.6592C171.678 76.3902 172.223 76.2558 172.882 76.2558C173.473 76.2558 173.992 76.377 174.439 76.6194C174.886 76.8618 175.234 77.2198 175.484 77.6933C175.734 78.1668 175.859 78.7501 175.859 79.4433V85.0967H174.842V79.5058C174.842 78.7861 174.642 78.2198 174.24 77.8069C173.842 77.3902 173.304 77.1819 172.626 77.1819C172.161 77.1819 171.746 77.2804 171.382 77.4774C171.018 77.6743 170.731 77.9584 170.518 78.3296C170.31 78.6971 170.206 79.1346 170.206 79.6421Z" fill="#C5484C"></path></svg>