<svg xmlns="http://www.w3.org/2000/svg" width="178" height="78" viewBox="0 0 178 78" fill="none"><path d="M56.0471 34.457H25.5V35.1403H56.0471V34.457Z" fill="#1D0501"></path><path d="M151.636 34.457H121.089V35.1403H151.636V34.457Z" fill="#1D0501"></path><path d="M33.7999 19.3516C33.3245 19.3516 32.5017 19.479 32.5017 18.751C32.5017 18.0049 33.3245 18.1505 33.7999 18.1505C34.641 18.1505 34.641 16.9311 33.7999 16.9311H31.6424C30.8379 16.9311 30.8379 15.7117 31.6424 15.7117H33.7999C36.2501 15.7117 36.2501 19.3516 33.7999 19.3516ZM29.8139 26.0308C29.8139 26.8316 28.5889 26.8316 28.5889 26.0308V13.91C28.5889 13.546 28.8631 13.2912 29.1923 13.2912H34.0194C39.5596 13.2912 39.5413 21.7904 34.0194 21.7904H32.264V26.0308C32.264 26.8316 31.0207 26.8316 31.0207 26.0308V21.1716C31.0207 20.844 31.3133 20.571 31.6424 20.571H34.0194C37.9505 20.571 37.9505 14.4924 34.0194 14.4924H29.8139V26.0308ZM53.4923 17.8593C53.5837 18.1869 53.4192 18.5327 53.0901 18.6236C52.7609 18.7328 52.3953 18.5508 52.3038 18.2233C51.9199 17.0585 51.1885 16.0575 50.1828 15.3295C49.232 14.6562 48.0436 14.2376 46.7454 14.2376C39.1207 14.2376 39.1207 25.6305 46.7454 25.6305C48.0436 25.6305 49.232 25.2301 50.1828 24.5385C51.1885 23.8287 51.9199 22.8277 52.3038 21.6448C52.3953 21.3172 52.7609 21.1534 53.0901 21.2444C53.4192 21.3354 53.5837 21.6994 53.4923 22.027C53.0352 23.4465 52.121 24.6841 50.9325 25.5395C49.744 26.3766 48.3178 26.8862 46.7454 26.8862C37.4751 26.8862 37.4751 13 46.7454 13C48.3178 13 49.744 13.4914 50.9325 14.3286C52.121 15.2021 53.0352 16.4215 53.4923 17.8593ZM42.9788 22.1362C42.7959 21.8268 42.9056 21.481 43.1982 21.299C43.509 21.1352 43.8747 21.2262 44.0393 21.5356C44.3318 22.0088 44.7341 22.4273 45.2095 22.6821C45.6483 22.9551 46.1785 23.1189 46.7454 23.1189C47.623 23.1189 48.4092 22.7731 48.9578 22.1908C49.5429 21.6266 49.8903 20.8258 49.8903 19.934C49.8903 19.0604 49.5429 18.2597 48.9578 17.6955C48.4092 17.1313 47.623 16.7673 46.7454 16.7673C46.1785 16.7673 45.6666 16.9129 45.2095 17.1859C44.7341 17.4589 44.3318 17.8593 44.0393 18.3325C43.8747 18.6418 43.509 18.751 43.1982 18.5872C42.9056 18.4235 42.7959 18.0413 42.9788 17.7319C43.3627 17.0585 43.9113 16.4943 44.5695 16.1121C45.2277 15.7299 45.9774 15.5297 46.7454 15.5297C47.9704 15.5297 49.0675 16.0211 49.872 16.8219C50.6399 17.6227 51.1336 18.7146 51.1336 19.934C51.1336 21.1534 50.6399 22.2453 49.872 23.0461C49.0675 23.8651 47.9704 24.3565 46.7454 24.3565C45.9774 24.3565 45.2277 24.1381 44.5695 23.7741C43.9113 23.3737 43.3627 22.8095 42.9788 22.1362ZM57.1858 26.049C57.1858 26.3766 56.9298 26.6678 56.5824 26.6678C56.2533 26.6678 55.979 26.3766 55.979 26.049V13.8736C55.979 13.546 56.2533 13.2912 56.5824 13.2912C56.9298 13.2912 57.1858 13.546 57.1858 13.8736V26.049ZM67.1691 26.049C67.1691 26.3766 66.8948 26.6678 66.5474 26.6678C66.2183 26.6678 65.9441 26.3766 65.9441 26.049V13.8736C65.9441 13.546 66.2183 13.2912 66.5474 13.2912C66.8948 13.2912 67.1691 13.546 67.1691 13.8736V26.049ZM64.847 25.7033C65.0298 25.9762 64.9567 26.3402 64.7007 26.5586C64.4082 26.7406 64.0425 26.6678 63.8413 26.3948L59.6359 20.4072V26.049C59.6359 26.3766 59.3616 26.6496 59.0142 26.6496C58.6851 26.6496 58.4291 26.3766 58.4291 26.049V18.4781C58.4291 18.2779 58.5023 18.0959 58.6851 17.9867C58.9411 17.7683 59.3434 17.8411 59.5262 18.1323L64.847 25.7033ZM58.3011 14.2376C58.1 13.9464 58.1732 13.5824 58.4474 13.4004C58.7217 13.182 59.1057 13.273 59.2885 13.546L63.4939 19.5336V13.8736C63.4939 13.546 63.7865 13.2912 64.1156 13.2912C64.4447 13.2912 64.719 13.546 64.719 13.8736V21.4446C64.719 21.6448 64.6276 21.845 64.4447 21.9542C64.1705 22.1544 63.8048 22.0816 63.6036 21.8086L58.3011 14.2376ZM78.1764 15.7117C78.5055 15.7117 78.7615 15.9847 78.7615 16.3305C78.7615 16.6581 78.5055 16.9129 78.1764 16.9129H75.7263V26.0308C75.7263 26.3766 75.452 26.6496 75.1046 26.6496C74.7755 26.6496 74.5012 26.3766 74.5012 26.0308V16.3305C74.5012 15.9847 74.7755 15.7117 75.1046 15.7117H78.1764ZM69.6375 14.4924C69.2901 14.4924 69.0159 14.2194 69.0159 13.8918C69.0159 13.546 69.2901 13.2912 69.6375 13.2912H78.1764C78.5055 13.2912 78.7615 13.546 78.7615 13.8918C78.7615 14.2194 78.5055 14.4924 78.1764 14.4924H69.6375ZM69.6375 16.9129C69.2901 16.9129 69.0159 16.6581 69.0159 16.3305C69.0159 15.9847 69.2901 15.7117 69.6375 15.7117H72.6727C73.0201 15.7117 73.2944 15.9847 73.2944 16.3305V26.0308C73.2944 26.3766 73.0201 26.6496 72.6727 26.6496C72.3436 26.6496 72.0511 26.3766 72.0511 26.0308V16.9129H69.6375ZM84.9782 20.7348H80.4985C79.694 20.7348 79.694 19.5154 80.4985 19.5154H84.9782C85.7827 19.5154 85.7827 20.7348 84.9782 20.7348ZM93.2062 19.3516C93.0417 19.3516 92.804 19.3698 92.6028 19.3516C91.652 19.297 91.6155 18.1505 92.6028 18.1505C93.1696 18.1505 93.8462 18.2415 93.8462 17.5317C93.8462 17.1677 93.5536 16.9129 93.2062 16.9129H91.0304C90.2258 16.9129 90.2258 15.6935 91.0304 15.6935H93.2062C94.3216 15.6935 95.0529 16.6217 95.0529 17.5499C95.0529 18.569 94.2119 19.3516 93.2062 19.3516ZM94.3399 25.6851C94.797 26.3402 93.8096 27.05 93.3342 26.3948L91.652 23.9743V26.049C91.652 26.8498 90.427 26.8498 90.427 26.049V22.0816C90.427 21.4264 91.1949 21.2444 91.5423 21.6994L94.3399 25.6851ZM89.2019 26.049C89.2019 26.8498 87.9769 26.8498 87.9769 26.049V13.8736C87.9769 13.546 88.2694 13.273 88.5985 13.273H93.4073C97.1557 13.273 99.039 17.8411 96.406 20.5346C95.8757 21.0624 95.2175 21.4628 94.4861 21.6448L97.3202 25.6851C97.7773 26.3402 96.7717 27.05 96.3329 26.3948L92.9502 21.572C92.5845 21.0988 92.9502 20.571 93.4073 20.571C96.0952 20.571 97.4116 17.2587 95.5283 15.3659C94.9798 14.82 94.2301 14.4924 93.4073 14.4924H89.2019V26.049ZM112.643 17.8593C112.734 18.1869 112.569 18.5327 112.24 18.6236C111.911 18.7328 111.546 18.5508 111.454 18.2233C111.07 17.0585 110.339 16.0575 109.333 15.3295C108.382 14.6562 107.194 14.2376 105.896 14.2376C98.271 14.2376 98.271 25.6305 105.896 25.6305C107.194 25.6305 108.382 25.2301 109.333 24.5385C110.339 23.8287 111.07 22.8277 111.454 21.6448C111.546 21.3172 111.911 21.1534 112.24 21.2444C112.569 21.3354 112.734 21.6994 112.643 22.027C112.186 23.4465 111.271 24.6841 110.083 25.5395C108.894 26.3766 107.468 26.8862 105.896 26.8862C96.6254 26.8862 96.6254 13 105.896 13C107.468 13 108.894 13.4914 110.083 14.3286C111.271 15.2021 112.186 16.4215 112.643 17.8593ZM102.129 22.1362C101.946 21.8268 102.056 21.481 102.348 21.299C102.659 21.1352 103.025 21.2262 103.19 21.5356C103.482 22.0088 103.884 22.4273 104.36 22.6821C104.799 22.9551 105.329 23.1189 105.896 23.1189C106.773 23.1189 107.56 22.7731 108.108 22.1908C108.693 21.6266 109.041 20.8258 109.041 19.934C109.041 19.0604 108.693 18.2597 108.108 17.6955C107.56 17.1313 106.773 16.7673 105.896 16.7673C105.329 16.7673 104.817 16.9129 104.36 17.1859C103.884 17.4589 103.482 17.8593 103.19 18.3325C103.025 18.6418 102.659 18.751 102.348 18.5872C102.056 18.4235 101.946 18.0413 102.129 17.7319C102.513 17.0585 103.062 16.4943 103.72 16.1121C104.378 15.7299 105.128 15.5297 105.896 15.5297C107.121 15.5297 108.218 16.0211 109.022 16.8219C109.79 17.6227 110.284 18.7146 110.284 19.934C110.284 21.1534 109.79 22.2453 109.022 23.0461C108.218 23.8651 107.121 24.3565 105.896 24.3565C105.128 24.3565 104.378 24.1381 103.72 23.7741C103.062 23.3737 102.513 22.8095 102.129 22.1362ZM117.561 21.6448V13.8554C117.561 13.5096 117.835 13.2366 118.165 13.2366C118.512 13.2366 118.786 13.5096 118.786 13.8554V21.6448C118.786 23.5739 121.62 23.5739 121.62 21.6448V13.8554C121.62 13.5096 121.876 13.2366 122.242 13.2366C122.571 13.2366 122.845 13.5096 122.845 13.8554V21.6448C122.845 25.1937 117.561 25.1937 117.561 21.6448ZM125.332 21.7904C125.332 28.4696 115.056 28.4514 115.056 21.7904V13.8554C115.056 13.5096 115.33 13.2366 115.66 13.2366C116.007 13.2366 116.281 13.5096 116.281 13.8554V21.7904C116.281 26.8862 124.125 26.8862 124.125 21.7904V13.8554C124.125 13.5096 124.381 13.2366 124.729 13.2366C125.058 13.2366 125.332 13.5096 125.332 13.8554V21.7904ZM138.296 25.3393C138.296 25.5577 138.168 25.7579 137.967 25.8671C133.395 28.3786 127.727 25.6123 127.636 20.0796C127.544 14.8927 132.39 11.9262 137.51 13.5642C138.387 13.8372 138.003 15.0019 137.144 14.7108C132.847 13.3276 128.788 15.7117 128.861 20.0614C128.934 24.6477 133.542 26.7042 137.071 24.9753V19.9522C137.071 19.1514 138.296 19.1514 138.296 19.9522V25.3393ZM137.327 16.0757C138.058 16.4215 137.564 17.5135 136.833 17.2041C136.175 16.9129 135.407 16.7855 134.529 16.8037C130.36 16.9675 130.488 23.1007 134.566 23.0643V19.9522C134.566 19.1514 135.809 19.1514 135.809 19.9522V23.6285C135.809 24.2837 134.968 24.3019 134.511 24.3019C128.952 24.3019 128.696 15.8027 134.493 15.6025C135.571 15.5661 136.504 15.7299 137.327 16.0757ZM148.096 15.7117C148.444 15.7117 148.718 15.9665 148.718 16.3123C148.718 16.6399 148.444 16.9129 148.096 16.9129H144.823V18.1323H146.963C147.31 18.1323 147.584 18.4053 147.584 18.751C147.584 19.0786 147.31 19.3516 146.963 19.3516H144.22C143.873 19.3516 143.598 19.0786 143.598 18.751V16.3123C143.598 15.9665 143.873 15.7117 144.22 15.7117H148.096ZM146.963 20.571C147.31 20.571 147.584 20.844 147.584 21.1716C147.584 21.5174 147.31 21.7904 146.963 21.7904H144.823V22.9915H148.096C148.444 22.9915 148.718 23.2645 148.718 23.6103C148.718 23.9379 148.444 24.2109 148.096 24.2109H144.22C143.873 24.2109 143.598 23.9379 143.598 23.6103V21.1716C143.598 20.844 143.873 20.571 144.22 20.571H146.963ZM148.096 25.4303C148.444 25.4303 148.718 25.7033 148.718 26.049C148.718 26.3766 148.444 26.6496 148.096 26.6496H141.77C141.441 26.6496 141.166 26.3766 141.166 26.049V13.8736C141.166 13.546 141.441 13.273 141.77 13.273H148.096C148.444 13.273 148.718 13.546 148.718 13.8736C148.718 14.2194 148.444 14.4924 148.096 14.4924H142.391V25.4303H148.096Z" fill="#1D0501"></path><path d="M61.4208 33.9446L63.18 38.063H62.6072L62.1864 37.0509H60.1176L59.6909 38.063H59.1357L60.9591 33.9446H61.4208ZM61.1695 34.5728L60.3104 36.5971H61.9994L61.1812 34.5728H61.1695ZM69.0184 33.9446L70.2924 37.3301H70.3041L71.619 33.9446H72.1392L70.5203 38.063H70.0469L68.4632 33.9446H69.0184ZM79.8244 33.8398C80.4477 33.8398 80.962 34.0434 81.3672 34.4506C81.7724 34.8578 81.9789 35.3756 81.9867 36.0038C81.9828 36.6437 81.7744 37.1633 81.3614 37.5628C80.9484 37.9622 80.4361 38.1639 79.8244 38.1678C79.201 38.1678 78.6867 37.9632 78.2815 37.5541C77.8763 37.1449 77.6698 36.6282 77.662 36.0038C77.662 35.3833 77.8646 34.8695 78.2698 34.4623C78.675 34.0551 79.1932 33.8476 79.8244 33.8398ZM78.188 36.0038C78.188 36.4963 78.3438 36.9025 78.6555 37.2225C78.9672 37.5424 79.3568 37.7063 79.8244 37.714C80.2919 37.714 80.6796 37.5511 80.9874 37.2254C81.2952 36.8996 81.453 36.4924 81.4607 36.0038C81.4607 35.5268 81.3088 35.1244 81.0049 34.7968C80.701 34.4691 80.3055 34.3013 79.8185 34.2936C79.3432 34.2975 78.9545 34.4632 78.6526 34.7909C78.3506 35.1186 78.1958 35.5229 78.188 36.0038ZM89.9407 33.8398C90.2641 33.8398 90.5505 33.897 90.7999 34.0114C91.0492 34.1259 91.2499 34.2839 91.4018 34.4855L90.9752 34.7938C90.8505 34.6271 90.6966 34.502 90.5135 34.4186C90.3304 34.3353 90.1395 34.2936 89.9407 34.2936C89.5005 34.2936 89.1294 34.4603 88.8274 34.7938C88.5255 35.1274 88.3706 35.5307 88.3628 36.0038C88.3628 36.4924 88.5128 36.8987 88.8128 37.2225C89.1128 37.5463 89.4888 37.7101 89.9407 37.714C90.4356 37.714 90.8349 37.5221 91.1388 37.1381L91.507 37.4464C91.1447 37.9273 90.6226 38.1678 89.9407 38.1678C89.3368 38.1678 88.8372 37.9603 88.4417 37.5453C88.0462 37.1304 87.8446 36.6165 87.8368 36.0038C87.8368 35.3911 88.0365 34.8792 88.4359 34.4681C88.8352 34.057 89.3368 33.8476 89.9407 33.8398ZM99.2974 33.9446L101.056 38.063H100.484L100.063 37.0509H97.9941L97.5675 38.063H97.0123L98.8357 33.9446H99.2974ZM99.0461 34.5728L98.187 36.5971H99.876L99.0578 34.5728H99.0461ZM109.683 33.9446V34.3983H108.315V38.063H107.824V34.3983H106.457V33.9446H109.683ZM116.772 33.8398C117.274 33.8398 117.66 34.0008 117.929 34.3227L117.526 34.6717C117.37 34.4274 117.118 34.3013 116.772 34.2936C116.511 34.2936 116.298 34.3556 116.135 34.4797C115.971 34.6038 115.889 34.7725 115.889 34.9858C115.889 35.172 115.952 35.3193 116.076 35.4279C116.201 35.5365 116.435 35.6431 116.778 35.7478C117.222 35.8758 117.536 36.0319 117.721 36.2161C117.906 36.4003 117.999 36.6495 117.999 36.9636C117.999 37.3282 117.863 37.619 117.59 37.8362C117.317 38.0534 116.968 38.1639 116.544 38.1678C116.259 38.1678 116.006 38.1173 115.784 38.0165C115.562 37.9157 115.39 37.7761 115.27 37.5977L115.69 37.2545C115.78 37.4018 115.905 37.5153 116.065 37.5948C116.224 37.6743 116.394 37.714 116.573 37.714C116.818 37.714 117.03 37.6452 117.207 37.5075C117.384 37.3698 117.473 37.2002 117.473 36.9985C117.473 36.8163 117.421 36.6728 117.318 36.5681C117.215 36.4633 117.044 36.3742 116.807 36.3005L116.333 36.1434C115.979 36.0232 115.728 35.8729 115.582 35.6926C115.436 35.5123 115.363 35.2902 115.363 35.0265C115.363 34.6775 115.494 34.3934 115.755 34.1743C116.016 33.9552 116.355 33.8437 116.772 33.8398Z" fill="#1D0501"></path><path d="M82.3896 53.168V44.4407H85.3342C85.9023 44.4407 86.3754 44.5401 86.7532 44.739C87.1339 44.9379 87.4194 45.2092 87.6097 45.5529C87.8001 45.8967 87.8952 46.2873 87.8952 46.7248C87.8952 47.0884 87.8342 47.3995 87.712 47.658C87.5898 47.9165 87.4237 48.1254 87.2134 48.2844C87.0032 48.4435 86.7688 48.5586 86.5103 48.6296V48.6978C86.7915 48.7177 87.0643 48.8171 87.3285 48.9961C87.5927 49.1722 87.81 49.4194 87.9805 49.7376C88.1509 50.0558 88.2362 50.4364 88.2362 50.8796C88.2362 51.32 88.1381 51.7134 87.9421 52.06C87.7461 52.4038 87.445 52.6751 87.0387 52.8739C86.6353 53.07 86.1211 53.168 85.4961 53.168H82.3896ZM83.1864 52.4521H85.4961C86.1694 52.4521 86.6665 52.3029 86.9876 52.0046C87.3114 51.7063 87.4734 51.3313 87.4734 50.8796C87.4734 50.5472 87.3924 50.2461 87.2305 49.9762C87.0714 49.7035 86.8455 49.4876 86.5529 49.3285C86.2631 49.1694 85.9222 49.0898 85.5302 49.0898H83.1864V52.4521ZM83.1864 48.3825H85.4066C85.7504 48.3825 86.0515 48.3114 86.31 48.1694C86.5685 48.0273 86.7702 47.8313 86.9151 47.5813C87.06 47.3313 87.1325 47.0458 87.1325 46.7248C87.1325 46.2617 86.9819 45.8853 86.6808 45.5955C86.3796 45.3029 85.9308 45.1566 85.3342 45.1566H83.1864V48.3825ZM89.3409 44.4407H90.2614L92.848 48.5827H92.9247L95.5114 44.4407H96.4318L93.2827 49.3881V53.168H92.4901V49.3881L89.3409 44.4407Z" fill="white"></path><path d="M13.8636 72.168L11.5568 64.5316H12.4915L14.3011 70.8306H14.3658L16.1705 64.5316H17.1101L18.8999 70.8157H18.9695L20.7791 64.5316H21.7138L19.407 72.168H18.4922L16.6825 65.9087H16.5881L14.7784 72.168H13.8636ZM25.1293 72.168L22.8224 64.5316H23.7571L25.5668 70.8306H25.6314L27.4361 64.5316H28.3757L30.1655 70.8157H30.2351L32.0447 64.5316H32.9794L30.6726 72.168H29.7578L27.9482 65.9087H27.8537L26.044 72.168H25.1293ZM36.3949 72.168L34.0881 64.5316H35.0227L36.8324 70.8306H36.897L38.7017 64.5316H39.6413L41.4311 70.8157H41.5007L43.3104 64.5316H44.245L41.9382 72.168H41.0234L39.2138 65.9087H39.1193L37.3097 72.168H36.3949ZM45.6321 72.2425C45.4366 72.2425 45.2675 72.1729 45.125 72.0337C44.9858 71.8912 44.9162 71.7222 44.9162 71.5266C44.9162 71.3278 44.9858 71.1587 45.125 71.0195C45.2675 70.8803 45.4366 70.8107 45.6321 70.8107C45.831 70.8107 46 70.8803 46.1392 71.0195C46.2784 71.1587 46.348 71.3278 46.348 71.5266C46.348 71.6559 46.3149 71.7752 46.2486 71.8846C46.1856 71.994 46.0994 72.0818 45.9901 72.1481C45.884 72.2111 45.7647 72.2425 45.6321 72.2425ZM56.8443 65.168H55.9096C55.84 64.82 55.7141 64.4985 55.5318 64.2035C55.3528 63.9052 55.1274 63.645 54.8556 63.4229C54.5839 63.2009 54.2756 63.0285 53.9309 62.9059C53.5862 62.7833 53.2134 62.7219 52.8123 62.7219C52.1693 62.7219 51.5827 62.8893 51.0524 63.2241C50.5254 63.5588 50.1028 64.051 49.7846 64.7006C49.4698 65.3469 49.3123 66.1391 49.3123 67.0771C49.3123 68.0217 49.4698 68.8171 49.7846 69.4634C50.1028 70.1097 50.5254 70.6003 51.0524 70.935C51.5827 71.2665 52.1693 71.4322 52.8123 71.4322C53.2134 71.4322 53.5862 71.3709 53.9309 71.2482C54.2756 71.1256 54.5839 70.9549 54.8556 70.7362C55.1274 70.5141 55.3528 70.2539 55.5318 69.9556C55.7141 69.6573 55.84 69.3342 55.9096 68.9862H56.8443C56.7614 69.4535 56.6056 69.8893 56.377 70.2937C56.1516 70.6947 55.8632 71.046 55.5119 71.3477C55.1639 71.6493 54.7628 71.8846 54.3088 72.0536C53.8547 72.2227 53.3559 72.3072 52.8123 72.3072C51.9572 72.3072 51.1982 72.0934 50.5353 71.6658C49.8725 71.235 49.3521 70.6284 48.9743 69.8462C48.5997 69.064 48.4125 68.141 48.4125 67.0771C48.4125 66.0131 48.5997 65.0901 48.9743 64.3079C49.3521 63.5257 49.8725 62.9208 50.5353 62.4933C51.1982 62.0624 51.9572 61.8469 52.8123 61.8469C53.3559 61.8469 53.8547 61.9315 54.3088 62.1005C54.7628 62.2662 55.1639 62.5015 55.5119 62.8065C55.8632 63.1081 56.1516 63.4594 56.377 63.8604C56.6056 64.2615 56.7614 64.6973 56.8443 65.168ZM59.729 61.9862V72.168H58.8441V61.9862H59.729ZM65.158 72.3271C64.4454 72.3271 63.829 72.1613 63.3086 71.8299C62.7882 71.4951 62.3855 71.0328 62.1005 70.4428C61.8188 69.8496 61.6779 69.1668 61.6779 68.3945C61.6779 67.6256 61.8188 66.9428 62.1005 66.3462C62.3855 65.7463 62.7783 65.2773 63.2788 64.9393C63.7826 64.5979 64.3642 64.4272 65.0238 64.4272C65.4381 64.4272 65.8375 64.5034 66.2219 64.6559C66.6064 64.805 66.9511 65.0354 67.256 65.3469C67.5643 65.6552 67.8079 66.0446 67.9869 66.5153C68.1658 66.9826 68.2553 67.5361 68.2553 68.1758V68.6133H62.2894V67.8327H67.3505C67.3505 67.3422 67.2511 66.9014 67.0522 66.5103C66.8567 66.1159 66.5832 65.8043 66.2319 65.5756C65.8839 65.3469 65.4812 65.2326 65.0238 65.2326C64.5399 65.2326 64.114 65.3619 63.7461 65.6204C63.3782 65.8789 63.0898 66.2203 62.881 66.6445C62.6755 67.0688 62.5711 67.5328 62.5678 68.0366V68.5039C62.5678 69.1104 62.6722 69.6407 62.881 70.0948C63.0932 70.5456 63.3931 70.8952 63.7809 71.1438C64.1687 71.3924 64.6277 71.5167 65.158 71.5167C65.5193 71.5167 65.8358 71.4603 66.1076 71.3477C66.3827 71.235 66.613 71.0842 66.7987 70.8952C66.9876 70.703 67.1301 70.4925 67.2262 70.2638L68.0664 70.5373C67.9504 70.8588 67.7598 71.1554 67.4947 71.4272C67.2328 71.699 66.9047 71.9177 66.5103 72.0835C66.1192 72.2459 65.6684 72.3271 65.158 72.3271ZM73.1188 75.1907C72.5984 75.1907 72.1427 75.1228 71.7516 74.9869C71.3605 74.8543 71.0307 74.672 70.7623 74.44C70.4938 74.208 70.285 73.9478 70.1358 73.6594L70.8617 73.1822C70.9711 73.3744 71.1169 73.5633 71.2992 73.7489C71.4848 73.9345 71.7251 74.0887 72.0201 74.2113C72.3184 74.3339 72.6846 74.3952 73.1188 74.3952C73.7949 74.3952 74.3401 74.2262 74.7544 73.8881C75.1721 73.5501 75.3809 73.0247 75.3809 72.3121V70.592H75.3013C75.1986 70.824 75.0511 71.056 74.8588 71.288C74.6666 71.5167 74.4147 71.7073 74.1032 71.8597C73.7949 72.0122 73.4121 72.0884 72.9547 72.0884C72.3449 72.0884 71.803 71.9376 71.329 71.636C70.8584 71.3344 70.4872 70.9035 70.2154 70.3434C69.9469 69.7799 69.8127 69.1088 69.8127 68.3299C69.8127 67.5576 69.9436 66.8782 70.2054 66.2915C70.4706 65.7049 70.8401 65.2475 71.3141 64.9194C71.7881 64.5913 72.3399 64.4272 72.9696 64.4272C73.437 64.4272 73.8248 64.5101 74.133 64.6758C74.4412 64.8382 74.6882 65.0404 74.8738 65.2823C75.0627 65.5243 75.2102 65.7596 75.3162 65.9883H75.4057V64.5316H76.2708V72.3668C76.2708 73.0131 76.1332 73.5451 75.8581 73.9627C75.583 74.3803 75.2085 74.6886 74.7346 74.8874C74.2606 75.0896 73.722 75.1907 73.1188 75.1907ZM73.0591 71.2781C73.5497 71.2781 73.9689 71.1604 74.3169 70.9251C74.665 70.6864 74.9318 70.3451 75.1174 69.9009C75.303 69.4568 75.3958 68.9281 75.3958 68.315C75.3958 67.7184 75.3046 67.1897 75.1223 66.729C74.94 66.265 74.6749 65.9004 74.3269 65.6353C73.9822 65.3668 73.5596 65.2326 73.0591 65.2326C72.5487 65.2326 72.1178 65.3701 71.7665 65.6452C71.4152 65.9203 71.15 66.2915 70.9711 66.7589C70.7921 67.2229 70.7026 67.7416 70.7026 68.315C70.7026 68.8983 70.7937 69.4137 70.976 69.8612C71.1583 70.3053 71.4251 70.6533 71.7765 70.9052C72.1278 71.1538 72.5553 71.2781 73.0591 71.2781ZM80.7464 72.342C80.2857 72.342 79.8648 72.2525 79.4837 72.0735C79.1025 71.8912 78.7992 71.6294 78.5739 71.288C78.3485 70.9433 78.2358 70.5257 78.2358 70.0352C78.2358 69.6573 78.3071 69.3391 78.4496 69.0806C78.5921 68.8221 78.7943 68.61 79.0561 68.4442C79.3179 68.2785 79.6278 68.1476 79.9858 68.0515C80.3438 67.9554 80.7382 67.8808 81.169 67.8278C81.5966 67.7747 81.9579 67.7283 82.2528 67.6886C82.5511 67.6488 82.7782 67.5858 82.9339 67.4996C83.0897 67.4135 83.1676 67.2743 83.1676 67.082V66.9031C83.1676 66.3827 83.0118 65.9734 82.7003 65.6751C82.392 65.3735 81.9479 65.2227 81.3679 65.2227C80.8177 65.2227 80.3686 65.3436 80.0206 65.5856C79.6759 65.8275 79.4339 66.1126 79.2947 66.4407L78.4545 66.1374C78.6269 65.7198 78.8655 65.3867 79.1705 65.1381C79.4754 64.8862 79.8168 64.7056 80.1946 64.5962C80.5724 64.4835 80.9553 64.4272 81.343 64.4272C81.6347 64.4272 81.938 64.4653 82.2528 64.5415C82.571 64.6178 82.866 64.7504 83.1378 64.9393C83.4096 65.1249 83.63 65.3851 83.799 65.7198C83.968 66.0513 84.0526 66.4722 84.0526 66.9826V72.168H83.1676V70.9599H83.1129C83.0069 71.1853 82.8494 71.404 82.6406 71.6161C82.4318 71.8282 82.17 72.0022 81.8551 72.1381C81.5402 72.274 81.1707 72.342 80.7464 72.342ZM80.8658 71.5316C81.3364 71.5316 81.7441 71.4272 82.0888 71.2184C82.4335 71.0096 82.6986 70.7328 82.8842 70.3881C83.0732 70.0401 83.1676 69.6573 83.1676 69.2397V68.136C83.1013 68.199 82.9903 68.2553 82.8345 68.305C82.6821 68.3548 82.5047 68.3995 82.3026 68.4393C82.1037 68.4757 81.9048 68.5072 81.706 68.5337C81.5071 68.5603 81.3281 68.5835 81.169 68.6033C80.7382 68.6564 80.3703 68.7392 80.0653 68.8519C79.7604 68.9646 79.5268 69.1204 79.3643 69.3192C79.2019 69.5148 79.1207 69.7667 79.1207 70.0749C79.1207 70.5389 79.2865 70.8986 79.6179 71.1538C79.9493 71.4057 80.3653 71.5316 80.8658 71.5316ZM87.2915 61.9862V72.168H86.4066V61.9862H87.2915ZM93.7546 67.3853V68.2205H89.5188V67.3853H93.7546ZM96.1758 72.168H95.2013L98.9052 61.9862H99.8995L103.603 72.168H102.629L99.4371 63.1942H99.3675L96.1758 72.168ZM96.8768 68.2653H101.928V69.1005H96.8768V68.2653ZM110.119 64.5316L107.33 72.168H106.385L103.596 64.5316H104.555L106.822 70.9996H106.892L109.159 64.5316H110.119ZM114.545 72.3271C113.885 72.3271 113.302 72.1597 112.795 71.8249C112.291 71.4902 111.896 71.0278 111.611 70.4379C111.326 69.8446 111.184 69.1602 111.184 68.3846C111.184 67.6024 111.326 66.9147 111.611 66.3214C111.896 65.7248 112.291 65.2608 112.795 64.9293C113.302 64.5946 113.885 64.4272 114.545 64.4272C115.204 64.4272 115.786 64.5946 116.29 64.9293C116.793 65.2641 117.188 65.7281 117.473 66.3214C117.761 66.9147 117.905 67.6024 117.905 68.3846C117.905 69.1602 117.763 69.8446 117.478 70.4379C117.193 71.0278 116.797 71.4902 116.29 71.8249C115.786 72.1597 115.204 72.3271 114.545 72.3271ZM114.545 71.5167C115.075 71.5167 115.524 71.3742 115.892 71.0891C116.26 70.8041 116.538 70.4246 116.727 69.9506C116.919 69.4767 117.015 68.9547 117.015 68.3846C117.015 67.8145 116.919 67.2908 116.727 66.8136C116.538 66.3363 116.26 65.9535 115.892 65.6651C115.524 65.3768 115.075 65.2326 114.545 65.2326C114.018 65.2326 113.568 65.3768 113.197 65.6651C112.829 65.9535 112.549 66.3363 112.357 66.8136C112.168 67.2908 112.074 67.8145 112.074 68.3846C112.074 68.9547 112.168 69.4767 112.357 69.9506C112.549 70.4246 112.829 70.8041 113.197 71.0891C113.565 71.3742 114.014 71.5167 114.545 71.5167ZM122.831 72.3271C122.148 72.3271 121.553 72.1564 121.046 71.815C120.542 71.4736 120.151 71.0063 119.873 70.413C119.594 69.8197 119.455 69.1436 119.455 68.3846C119.455 67.619 119.596 66.9379 119.878 66.3413C120.163 65.7447 120.557 65.2773 121.061 64.9393C121.565 64.5979 122.15 64.4272 122.816 64.4272C123.326 64.4272 123.789 64.5266 124.203 64.7255C124.617 64.921 124.959 65.1978 125.227 65.5558C125.499 65.9104 125.67 66.3247 125.739 66.7987H124.844C124.752 66.3678 124.528 65.9999 124.173 65.695C123.822 65.3867 123.375 65.2326 122.831 65.2326C122.344 65.2326 121.913 65.3652 121.538 65.6303C121.164 65.8922 120.871 66.2584 120.658 66.729C120.45 67.1964 120.345 67.7383 120.345 68.3548C120.345 68.9746 120.448 69.5231 120.653 70.0004C120.859 70.4743 121.147 70.8455 121.518 71.114C121.893 71.3825 122.33 71.5167 122.831 71.5167C123.169 71.5167 123.477 71.4537 123.756 71.3278C124.037 71.1985 124.273 71.0162 124.462 70.7809C124.654 70.5456 124.783 70.2655 124.849 69.9407H125.744C125.678 70.4014 125.514 70.8124 125.252 71.1737C124.994 71.5316 124.657 71.8133 124.243 72.0188C123.832 72.2243 123.361 72.3271 122.831 72.3271ZM129.774 72.342C129.313 72.342 128.892 72.2525 128.511 72.0735C128.13 71.8912 127.827 71.6294 127.601 71.288C127.376 70.9433 127.263 70.5257 127.263 70.0352C127.263 69.6573 127.334 69.3391 127.477 69.0806C127.619 68.8221 127.822 68.61 128.083 68.4442C128.345 68.2785 128.655 68.1476 129.013 68.0515C129.371 67.9554 129.766 67.8808 130.196 67.8278C130.624 67.7747 130.985 67.7283 131.28 67.6886C131.578 67.6488 131.806 67.5858 131.961 67.4996C132.117 67.4135 132.195 67.2743 132.195 67.082V66.9031C132.195 66.3827 132.039 65.9734 131.728 65.6751C131.419 65.3735 130.975 65.2227 130.395 65.2227C129.845 65.2227 129.396 65.3436 129.048 65.5856C128.703 65.8275 128.461 66.1126 128.322 66.4407L127.482 66.1374C127.654 65.7198 127.893 65.3867 128.198 65.1381C128.503 64.8862 128.844 64.7056 129.222 64.5962C129.6 64.4835 129.983 64.4272 130.37 64.4272C130.662 64.4272 130.965 64.4653 131.28 64.5415C131.598 64.6178 131.893 64.7504 132.165 64.9393C132.437 65.1249 132.657 65.3851 132.826 65.7198C132.995 66.0513 133.08 66.4722 133.08 66.9826V72.168H132.195V70.9599H132.14C132.034 71.1853 131.877 71.404 131.668 71.6161C131.459 71.8282 131.197 72.0022 130.882 72.1381C130.568 72.274 130.198 72.342 129.774 72.342ZM129.893 71.5316C130.364 71.5316 130.771 71.4272 131.116 71.2184C131.461 71.0096 131.726 70.7328 131.912 70.3881C132.1 70.0401 132.195 69.6573 132.195 69.2397V68.136C132.129 68.199 132.018 68.2553 131.862 68.305C131.709 68.3548 131.532 68.3995 131.33 68.4393C131.131 68.4757 130.932 68.5072 130.733 68.5337C130.534 68.5603 130.355 68.5835 130.196 68.6033C129.766 68.6564 129.398 68.7392 129.093 68.8519C128.788 68.9646 128.554 69.1204 128.392 69.3192C128.229 69.5148 128.148 69.7667 128.148 70.0749C128.148 70.5389 128.314 70.8986 128.645 71.1538C128.977 71.4057 129.393 71.5316 129.893 71.5316ZM138.442 64.5316V65.3022H134.798V64.5316H138.442ZM135.936 62.7021H136.826V70.1744C136.826 70.4925 136.881 70.7428 136.99 70.9251C137.099 71.104 137.242 71.2317 137.418 71.3079C137.593 71.3808 137.781 71.4173 137.979 71.4173C138.095 71.4173 138.195 71.4106 138.278 71.3974C138.361 71.3808 138.433 71.3642 138.496 71.3477L138.685 72.1481C138.599 72.1812 138.493 72.2111 138.367 72.2376C138.241 72.2674 138.085 72.2823 137.9 72.2823C137.575 72.2823 137.262 72.2111 136.96 72.0685C136.662 71.926 136.417 71.7139 136.224 71.4322C136.032 71.1504 135.936 70.8008 135.936 70.3832V62.7021ZM145.445 66.207L144.635 66.4357C144.556 66.207 144.443 65.9999 144.297 65.8143C144.151 65.6287 143.961 65.4812 143.725 65.3718C143.493 65.2624 143.205 65.2077 142.86 65.2077C142.343 65.2077 141.919 65.3304 141.588 65.5756C141.256 65.8209 141.09 66.1374 141.09 66.5252C141.09 66.8533 141.203 67.1201 141.428 67.3256C141.657 67.5278 142.008 67.6886 142.482 67.8079L143.636 68.0913C144.276 68.247 144.754 68.494 145.073 68.832C145.394 69.1701 145.555 69.5943 145.555 70.1048C145.555 70.5356 145.436 70.9184 145.197 71.2532C144.958 71.5879 144.625 71.8514 144.198 72.0437C143.773 72.2326 143.281 72.3271 142.721 72.3271C141.975 72.3271 141.36 72.1597 140.877 71.8249C140.393 71.4869 140.083 70.9996 139.947 70.3633L140.797 70.1545C140.906 70.6085 141.12 70.9516 141.438 71.1836C141.76 71.4156 142.182 71.5316 142.706 71.5316C143.293 71.5316 143.762 71.4007 144.113 71.1388C144.464 70.8737 144.64 70.5423 144.64 70.1445C144.64 69.8363 144.537 69.5778 144.332 69.369C144.126 69.1568 143.815 69.0011 143.397 68.9016L142.149 68.6033C141.486 68.4442 140.996 68.1924 140.678 67.8477C140.36 67.503 140.2 67.0754 140.2 66.565C140.2 66.1441 140.315 65.7745 140.544 65.4563C140.772 65.1348 141.087 64.8829 141.488 64.7006C141.889 64.5183 142.347 64.4272 142.86 64.4272C143.56 64.4272 144.118 64.5863 144.536 64.9045C144.957 65.2193 145.26 65.6535 145.445 66.207ZM148.199 72.2425C148.003 72.2425 147.834 72.1729 147.691 72.0337C147.552 71.8912 147.483 71.7222 147.483 71.5266C147.483 71.3278 147.552 71.1587 147.691 71.0195C147.834 70.8803 148.003 70.8107 148.199 70.8107C148.397 70.8107 148.566 70.8803 148.706 71.0195C148.845 71.1587 148.914 71.3278 148.914 71.5266C148.914 71.6559 148.881 71.7752 148.815 71.8846C148.752 71.994 148.666 72.0818 148.556 72.1481C148.45 72.2111 148.331 72.2425 148.199 72.2425ZM154.235 72.3271C153.552 72.3271 152.958 72.1564 152.45 71.815C151.947 71.4736 151.556 71.0063 151.277 70.413C150.999 69.8197 150.86 69.1436 150.86 68.3846C150.86 67.619 151 66.9379 151.282 66.3413C151.567 65.7447 151.962 65.2773 152.465 64.9393C152.969 64.5979 153.554 64.4272 154.22 64.4272C154.731 64.4272 155.193 64.5266 155.607 64.7255C156.022 64.921 156.363 65.1978 156.632 65.5558C156.903 65.9104 157.074 66.3247 157.144 66.7987H156.249C156.156 66.3678 155.932 65.9999 155.578 65.695C155.226 65.3867 154.779 65.2326 154.235 65.2326C153.748 65.2326 153.317 65.3652 152.943 65.6303C152.568 65.8922 152.275 66.2584 152.063 66.729C151.854 67.1964 151.749 67.7383 151.749 68.3548C151.749 68.9746 151.852 69.5231 152.058 70.0004C152.263 70.4743 152.552 70.8455 152.923 71.114C153.297 71.3825 153.735 71.5167 154.235 71.5167C154.573 71.5167 154.882 71.4537 155.16 71.3278C155.442 71.1985 155.677 71.0162 155.866 70.7809C156.058 70.5456 156.187 70.2655 156.254 69.9407H157.149C157.082 70.4014 156.918 70.8124 156.656 71.1737C156.398 71.5316 156.061 71.8133 155.647 72.0188C155.236 72.2243 154.766 72.3271 154.235 72.3271ZM159.93 67.3952V72.168H159.045V61.9862H159.93V65.7298H160.01C160.189 65.3353 160.465 65.0205 160.84 64.7852C161.218 64.5498 161.695 64.4322 162.272 64.4322C162.789 64.4322 163.243 64.5382 163.634 64.7504C164.025 64.9625 164.33 65.2757 164.549 65.69C164.768 66.1043 164.877 66.6147 164.877 67.2212V72.168H163.987V67.2759C163.987 66.6462 163.811 66.1507 163.46 65.7894C163.112 65.4248 162.641 65.2425 162.048 65.2425C161.64 65.2425 161.278 65.3287 160.959 65.5011C160.641 65.6734 160.389 65.922 160.204 66.2468C160.021 66.5683 159.93 66.9511 159.93 67.3952Z" fill="#C5484C"></path></svg>