<svg xmlns="http://www.w3.org/2000/svg" width="40" height="40" viewBox="0 0 40 40" fill="none"><path d="M4.16699 20.0003C4.16699 12.5364 4.16699 8.80448 6.48573 6.48573C8.80448 4.16699 12.5364 4.16699 20.0003 4.16699C27.4643 4.16699 31.1961 4.16699 33.515 6.48573C35.8336 8.80448 35.8336 12.5364 35.8336 20.0003C35.8336 27.4642 35.8336 31.1962 33.515 33.515C31.1961 35.8337 27.4643 35.8337 20.0003 35.8337C12.5364 35.8337 8.80448 35.8337 6.48573 33.515C4.16699 31.1962 4.16699 27.4642 4.16699 20.0003Z" stroke="white" stroke-width="1.5" stroke-linecap="round" stroke-linejoin="round"></path><path d="M11.667 28.3337L18.6563 21.3445M18.6563 21.3445L11.667 11.667H16.2966L21.3445 18.6562M18.6563 21.3445L23.704 28.3337H28.3336L21.3445 18.6562M28.3336 11.667L21.3445 18.6562" stroke="white" stroke-width="1.5" stroke-linecap="round" stroke-linejoin="round"></path></svg>