<svg xmlns="http://www.w3.org/2000/svg" width="40" height="40" viewBox="0 0 40 40" fill="none"><path d="M4.16699 20.0003C4.16699 12.5364 4.16699 8.80448 6.48573 6.48573C8.80448 4.16699 12.5364 4.16699 20.0003 4.16699C27.4642 4.16699 31.1962 4.16699 33.515 6.48573C35.8337 8.80448 35.8337 12.5364 35.8337 20.0003C35.8337 27.4642 35.8337 31.1962 33.515 33.515C31.1962 35.8337 27.4642 35.8337 20.0003 35.8337C12.5364 35.8337 8.80448 35.8337 6.48573 33.515C4.16699 31.1962 4.16699 27.4642 4.16699 20.0003Z" stroke="white" stroke-width="1.5" stroke-linejoin="round"></path><path d="M17.5602 18.3455C16.1934 18.1523 13.0781 18.472 11.5505 21.2967C10.0229 24.1212 11.5625 27.061 12.5232 28.1778C13.472 29.2227 16.4874 31.2013 19.686 29.2695C20.4788 28.7907 21.4665 28.4335 22.587 24.6918L22.4567 9.96875C22.2405 11.59 24.0313 15.3926 29.1303 15.8425" stroke="white" stroke-width="1.5" stroke-linecap="round" stroke-linejoin="round"></path></svg>