<svg xmlns="http://www.w3.org/2000/svg" width="40" height="40" viewBox="0 0 40 40" fill="none"><path d="M19.9997 34.1663C23.0158 34.1663 25.9082 33.8683 28.5887 33.322C31.9368 32.6395 33.611 32.2982 35.1387 30.334C36.6663 28.3698 36.6663 26.1152 36.6663 21.6055V18.3938C36.6663 13.8842 36.6663 11.6295 35.1387 9.66529C33.611 7.70114 31.9368 7.35989 28.5887 6.67737C25.9082 6.13096 23.0158 5.83301 19.9997 5.83301C16.9835 5.83301 14.0912 6.13096 11.4106 6.67737C8.06244 7.35989 6.38836 7.70114 4.86067 9.66529C3.33301 11.6295 3.33301 13.8842 3.33301 18.3938V21.6055C3.33301 26.1152 3.33301 28.3698 4.86067 30.334C6.38836 32.2982 8.06244 32.6395 11.4106 33.322C14.0912 33.8683 16.9835 34.1663 19.9997 34.1663Z" stroke="white" stroke-width="1.5"></path><path d="M26.6035 20.5218C26.3562 21.5315 25.0402 22.2567 22.4082 23.7072C19.5453 25.2845 18.114 26.0733 16.9547 25.7695C16.562 25.6665 16.2003 25.4855 15.8966 25.24C15 24.5152 15 23.0102 15 20.0003C15 16.9905 15 15.4855 15.8966 14.7606C16.2003 14.5151 16.562 14.3341 16.9547 14.2312C18.114 13.9273 19.5453 14.7161 22.4082 16.2935C25.0402 17.744 26.3562 18.4692 26.6035 19.4788C26.6877 19.8225 26.6877 20.1782 26.6035 20.5218Z" stroke="white" stroke-width="1.5" stroke-linejoin="round"></path></svg>